# xmcd
#
# Track frame offsets: 
#        150
#        19687
#        38079
#        56079
#        72890
#        91748
#        109604
#        126431
#        144241
#        161320
#        176628
#        193722
#
# Disc length: 2834 seconds
#
# Revision: 0
# Processed by: cddbd v1.5.2PL0 Copyright (c) Steve Scherf et al.
# Submitted via: ExactAudioCopyFreeDBPlugin 1.0
#
DISCID=9a0b100c
DTITLE=Richie McDonald - Slow Down
DYEAR=2012
DGENRE=Country
TTITLE0=Slow Down
TTITLE1=Growing Old Together
TTITLE2=Guntersville Gazette
TTITLE3=How Do I Just Stop Loving You
TTITLE4=Love's The Greatest Thing
TTITLE5=Footprints On The Moon
TTITLE6=Hey God
TTITLE7=This House
TTITLE8=Before It's Too Late
TTITLE9=Somewhere Down This Road
TTITLE10=Thankful
TTITLE11=Ill Be Waiting
EXTD=
EXTT0=
EXTT1=
EXTT2=
EXTT3=
EXTT4=
EXTT5=
EXTT6=
EXTT7=
EXTT8=
EXTT9=
EXTT10=
EXTT11=
PLAYORDER=
